<svg width="960" height="640" viewBox="0 0 960 640" fill="none" xmlns="http://www.w3.org/2000/svg">
  <rect width="960" height="640" rx="36" fill="url(#paint0_linear)"/>
  <circle cx="762" cy="132" r="148" fill="url(#paint1_radial)" opacity="0.7"/>
  <circle cx="180" cy="82" r="122" fill="url(#paint2_radial)" opacity="0.5"/>
  <path d="M115 440C115 375.935 166.935 324 231 324H729C793.065 324 845 375.935 845 440V528H115V440Z" fill="#EFE4D0"/>
  <rect x="90" y="528" width="780" height="62" rx="14" fill="#D9C1A1"/>
  <rect x="188" y="194" width="586" height="112" rx="22" fill="#F7F0E4"/>
  <rect x="212" y="220" width="540" height="14" rx="7" fill="#D7C0A1"/>
  <rect x="212" y="248" width="440" height="14" rx="7" fill="#D7C0A1"/>
  <rect x="700" y="248" width="52" height="14" rx="7" fill="#2D6F66"/>
  <rect x="266" y="372" width="428" height="96" rx="20" fill="#FDF9F1"/>
  <rect x="292" y="402" width="200" height="10" rx="5" fill="#D6C2A6"/>
  <rect x="292" y="424" width="286" height="10" rx="5" fill="#D6C2A6"/>
  <circle cx="672" cy="420" r="26" fill="#2D6F66"/>
  <path d="M657 420H687" stroke="#F3E9D8" stroke-width="4" stroke-linecap="round"/>
  <path d="M672 405V435" stroke="#F3E9D8" stroke-width="4" stroke-linecap="round"/>
  <path d="M112 552H848" stroke="#B18966" stroke-width="3" stroke-dasharray="8 8" opacity="0.7"/>
  <defs>
    <linearGradient id="paint0_linear" x1="480" y1="0" x2="480" y2="640" gradientUnits="userSpaceOnUse">
      <stop stop-color="#F8F3E8"/>
      <stop offset="1" stop-color="#E7D7C1"/>
    </linearGradient>
    <radialGradient id="paint1_radial" cx="0" cy="0" r="1" gradientUnits="userSpaceOnUse" gradientTransform="translate(762 132) rotate(90) scale(148)">
      <stop stop-color="#2D6F66" stop-opacity="0.32"/>
      <stop offset="1" stop-color="#2D6F66" stop-opacity="0"/>
    </radialGradient>
    <radialGradient id="paint2_radial" cx="0" cy="0" r="1" gradientUnits="userSpaceOnUse" gradientTransform="translate(180 82) rotate(90) scale(122)">
      <stop stop-color="#C78A4B" stop-opacity="0.35"/>
      <stop offset="1" stop-color="#C78A4B" stop-opacity="0"/>
    </radialGradient>
  </defs>
</svg>
